REM MD5 67fffa68bf3d95b213d4b867bdc02eb3
FILE "Fox Sports Golf '99 (USA).bin" BINARY
  TRACK 01 MODE2/2352
    INDEX 01 00:00:00
  TRACK 02 AUDIO
    INDEX 00 35:35:05
    INDEX 01 35:37:05
  TRACK 03 AUDIO
    INDEX 00 38:32:16
    INDEX 01 38:34:16
REM LEADOUT 42:45:64
